<?xml version="1.0" encoding="UTF-8"?>
<svg version="1.1" xmlns="http://www.w3.org/2000/svg" width="887" height="887">
<path d="M0 0 C15.84 0 31.68 0 48 0 C48 7.92 48 15.84 48 24 C55.92 24 63.84 24 72 24 C72 16.08 72 8.16 72 0 C103.68 0 135.36 0 168 0 C168 7.92 168 15.84 168 24 C175.92 24 183.84 24 192 24 C192 83.4 192 142.8 192 204 C168.24 204 144.48 204 120 204 C120 152.52 120 101.04 120 48 C112.08 48 104.16 48 96 48 C96 55.92 96 63.84 96 72 C88.08 72 80.16 72 72 72 C72 115.56 72 159.12 72 204 C48.24 204 24.48 204 0 204 C0 136.68 0 69.36 0 0 Z " fill="#FC7905" transform="translate(391,365)"/>
<path d="M0 0 C39.6 0 79.2 0 120 0 C120 7.92 120 15.84 120 24 C127.92 24 135.84 24 144 24 C144 75.48 144 126.96 144 180 C136.08 180 128.16 180 120 180 C120 187.92 120 195.84 120 204 C80.4 204 40.8 204 0 204 C0 196.08 0 188.16 0 180 C-7.92 180 -15.84 180 -24 180 C-24 128.52 -24 77.04 -24 24 C-16.08 24 -8.16 24 0 24 C0 16.08 0 8.16 0 0 Z M49 50 C49 84.32 49 118.64 49 154 C56.26 154 63.52 154 71 154 C71.02254853 140.45735525 71.04091364 126.91472287 71.05181217 113.37206364 C71.05704162 107.08437976 71.06414039 100.79670934 71.07543945 94.5090332 C71.08626614 88.44662277 71.09227637 82.38422531 71.09487724 76.32180595 C71.09673189 74.00323723 71.10035325 71.68466926 71.10573006 69.36610603 C71.11293758 66.13085492 71.11399106 62.89565817 71.11352539 59.66040039 C71.11712067 58.69151886 71.12071594 57.72263733 71.12442017 56.72439575 C71.1230455 55.84794907 71.12167084 54.97150238 71.12025452 54.0684967 C71.12117631 53.30248673 71.1220981 52.53647676 71.12304783 51.74725437 C71.18986791 49.97130594 71.18986791 49.97130594 70 49 C67.98125162 48.8992108 65.95875751 48.87035877 63.9375 48.875 C62.28041016 48.87113281 62.28041016 48.87113281 60.58984375 48.8671875 C56.71080633 49.01069922 52.85171635 49.51853546 49 50 Z " fill="#FC7A05" transform="translate(631,365)"/>
<path d="M0 0 C39.6 0 79.2 0 120 0 C120 23.76 120 47.52 120 72 C104.16 72 88.32 72 72 72 C72 64.08 72 56.16 72 48 C64.08 48 56.16 48 48 48 C48.33 63.51 48.66 79.02 49 95 C72.265 95.495 72.265 95.495 96 96 C96.33 111.84 96.66 127.68 97 144 C80.83 144 64.66 144 48 144 C48 179.64 48 215.28 48 252 C24.24 252 0.48 252 -24 252 C-24 216.36 -24 180.72 -24 144 C-32.25 144 -40.5 144 -49 144 C-48.67 128.16 -48.34 112.32 -48 96 C-40.41 95.67 -32.82 95.34 -25 95 C-24.67 71.57 -24.34 48.14 -24 24 C-16.08 24 -8.16 24 0 24 C0 16.08 0 8.16 0 0 Z " fill="#FC7A05" transform="translate(151,317)"/>
<path d="M0 0 C23.76 0 47.52 0 72 0 C72 59.4 72 118.8 72 180 C48.24 180 24.48 180 0 180 C0 120.6 0 61.2 0 0 Z " fill="#FC7A05" transform="translate(295,389)"/>
<path d="M0 0 C23.76 0 47.52 0 72 0 C72 15.84 72 31.68 72 48 C48.24 48 24.48 48 0 48 C0 32.16 0 16.32 0 0 Z " fill="#FB7A06" transform="translate(295,317)"/>
<path d="M0 0 C15.84 0 31.68 0 48 0 C48 7.92 48 15.84 48 24 C55.92 24 63.84 24 72 24 C72 16.08 72 8.16 72 0 C103.68 0 135.36 0 168 0 C168 7.92 168 15.84 168 24 C175.92 24 183.84 24 192 24 C192 83.4 192 142.8 192 204 C168.24 204 144.48 204 120 204 C120 152.52 120 101.04 120 48 C112.08 48 104.16 48 96 48 C96 55.92 96 63.84 96 72 C88.08 72 80.16 72 72 72 C72 115.56 72 159.12 72 204 C48.24 204 24.48 204 0 204 C0 136.68 0 69.36 0 0 Z M2 2 C2 67.67 2 133.34 2 201 C24.11 201 46.22 201 69 201 C69.06058594 191.62722656 69.12117188 182.25445313 69.18359375 172.59765625 C69.22406445 166.67772991 69.26478466 160.75780706 69.30664062 154.83789062 C69.37310332 145.43108787 69.43851539 136.02428583 69.49731445 126.61743164 C69.54013439 119.76771678 69.58640675 112.91803558 69.63687855 106.06837267 C69.66349722 102.43932582 69.68835064 98.81028573 69.70907402 95.18120003 C69.7322355 91.13645577 69.76310258 87.09180646 69.79467773 83.04711914 C69.8004332 81.83511841 69.80618866 80.62311768 69.81211853 79.37438965 C69.82190735 78.27917496 69.83169617 77.18396027 69.84178162 76.05555725 C69.84823417 75.09781434 69.85468672 74.14007143 69.8613348 73.15330601 C70 71 70 71 71 70 C72.54815405 69.85518713 74.10228354 69.77297155 75.65625 69.71875 C76.59597656 69.68136719 77.53570312 69.64398438 78.50390625 69.60546875 C80.50130208 69.53515625 82.49869792 69.46484375 84.49609375 69.39453125 C85.43582031 69.35714844 86.37554687 69.31976563 87.34375 69.28125 C88.21193359 69.25095703 89.08011719 69.22066406 89.97460938 69.18945312 C91.9949413 69.21778499 91.9949413 69.21778499 93 68 C93.08669432 66.5112814 93.10703494 65.018555 93.09765625 63.52734375 C93.09443359 62.62822266 93.09121094 61.72910156 93.08789062 60.80273438 C93.07951172 59.85720703 93.07113281 58.91167969 93.0625 57.9375 C93.05798828 56.98810547 93.05347656 56.03871094 93.04882812 55.06054688 C93.0370011 52.70696935 93.02052025 50.35351523 93 48 C101.10432386 45.29855871 111.53486857 45.18657532 120 46 C122 48 122 48 122.24609566 50.65117073 C122.24333028 52.35187879 122.24333028 52.35187879 122.24050903 54.08694458 C122.24325836 55.38547363 122.24600769 56.68400269 122.24884033 58.0218811 C122.24176154 59.46917816 122.23449191 60.91647429 122.22705078 62.36376953 C122.2264869 63.88128655 122.22680278 65.39880411 122.22793579 66.9163208 C122.2285112 71.04421737 122.21672657 75.17199845 122.20278788 79.29986811 C122.19031176 83.61070328 122.18911249 87.92154091 122.18673706 92.23239136 C122.1805131 100.39927244 122.16408992 108.56610017 122.14403808 116.73295772 C122.12170754 126.02907126 122.11069282 135.3251873 122.10064721 144.62132096 C122.07972446 163.74757759 122.04453073 182.87378451 122 202 C126.0752646 202.00459666 130.15052817 202.0078976 134.22579479 202.01008511 C135.60725334 202.01099869 136.98871172 202.01224406 138.37016964 202.01385021 C148.78181104 202.02563718 159.18210135 201.93774045 169.58911133 201.62768555 C171.91929297 201.55936903 174.24961596 201.50124574 176.58007812 201.44335938 C178.08074545 201.40162302 179.58139746 201.35933143 181.08203125 201.31640625 C183.05006714 201.26141968 183.05006714 201.26141968 185.05786133 201.20532227 C187.88755272 201.33116869 187.88755272 201.33116869 189 200 C190.29918939 191.67785656 190.1341429 183.32291378 190.11352539 174.92358398 C190.11324293 173.30651349 190.1134024 171.68944286 190.1139679 170.07237244 C190.11425358 165.70526471 190.10839385 161.33818471 190.10139394 156.9710834 C190.0951223 152.39869755 190.09455359 147.826311 190.09336853 143.25392151 C190.09026642 134.60563592 190.08206818 125.95736305 190.07201904 117.30908304 C190.06082305 107.45900303 190.05533868 97.60892238 190.05032361 87.75883758 C190.0398846 67.50588445 190.02210435 47.25294347 190 27 C182.41 27 174.82 27 167 27 C166.67 18.75 166.34 10.5 166 2 C135.64 2 105.28 2 74 2 C73.67 9.59 73.34 17.18 73 25 C72 26 72 26 69.68334961 26.11352539 C68.68311768 26.10828857 67.68288574 26.10305176 66.65234375 26.09765625 C65.57275391 26.09443359 64.49316406 26.09121094 63.38085938 26.08789062 C62.24455078 26.07951172 61.10824219 26.07113281 59.9375 26.0625 C58.79732422 26.05798828 57.65714844 26.05347656 56.48242188 26.04882812 C53.65489649 26.03699747 50.8274736 26.0205141 48 26 C46 22 46 22 45 2 C30.81 2 16.62 2 2 2 Z " fill="#D97D2F" transform="translate(391,365)"/>
<path d="M0 0 C39.6 0 79.2 0 120 0 C120 7.92 120 15.84 120 24 C127.92 24 135.84 24 144 24 C144 75.48 144 126.96 144 180 C136.08 180 128.16 180 120 180 C120 187.92 120 195.84 120 204 C80.4 204 40.8 204 0 204 C0 196.08 0 188.16 0 180 C-7.92 180 -15.84 180 -24 180 C-24 128.52 -24 77.04 -24 24 C-16.08 24 -8.16 24 0 24 C0 16.08 0 8.16 0 0 Z M2 2 C2 9.92 2 17.84 2 26 C-5.92 26 -13.84 26 -22 26 C-22 76.16 -22 126.32 -22 178 C-10.615 178.495 -10.615 178.495 1 179 C1.495 190.385 1.495 190.385 2 202 C40.28 202 78.56 202 118 202 C118 194.74 118 187.48 118 180 C125.92 179.67 133.84 179.34 142 179 C142 128.51 142 78.02 142 26 C134.41 25.67 126.82 25.34 119 25 C118.67 17.41 118.34 9.82 118 2 C79.72 2 41.44 2 2 2 Z " fill="#D57B31" transform="translate(631,365)"/>
<path d="M0 0 C39.6 0 79.2 0 120 0 C120 23.76 120 47.52 120 72 C104.16 72 88.32 72 72 72 C72 64.08 72 56.16 72 48 C64.08 48 56.16 48 48 48 C48.33 63.51 48.66 79.02 49 95 C72.265 95.495 72.265 95.495 96 96 C96.33 111.84 96.66 127.68 97 144 C80.83 144 64.66 144 48 144 C48 143.34 48 142.68 48 142 C63.18 142 78.36 142 94 142 C94 127.48 94 112.96 94 98 C90.63039063 98.02320313 87.26078125 98.04640625 83.7890625 98.0703125 C80.53581113 98.08589722 77.28256386 98.09804869 74.02929688 98.10986328 C71.76332751 98.11993859 69.49737119 98.13359918 67.23144531 98.15087891 C63.97978499 98.17506011 60.72829613 98.18646763 57.4765625 98.1953125 C55.94994492 98.21079636 55.94994492 98.21079636 54.39248657 98.22659302 C53.45166229 98.22674408 52.51083801 98.22689514 51.54150391 98.22705078 C50.71099518 98.231492 49.88048645 98.23593323 49.02481079 98.24050903 C47 98 47 98 45 96 C44.75276184 93.9059906 44.75276184 93.9059906 44.75708008 91.29077148 C44.75246513 89.82431435 44.75246513 89.82431435 44.74775696 88.32823181 C44.75494247 87.26987625 44.76212799 86.21152069 44.76953125 85.12109375 C44.76998947 84.03868912 44.77044769 82.95628448 44.7709198 81.84107971 C44.77394441 79.55037339 44.78183691 77.25966916 44.79418945 74.96899414 C44.81244215 71.44865697 44.81469922 67.92858266 44.81445312 64.40820312 C44.81936825 62.18749771 44.82519654 59.96679409 44.83203125 57.74609375 C44.83314407 56.68571396 44.8342569 55.62533417 44.83540344 54.53282166 C44.84178329 53.55833572 44.84816315 52.58384979 44.85473633 51.57983398 C44.86045403 50.28649391 44.86045403 50.28649391 44.86628723 48.96702576 C45 47 45 47 46 46 C50.47331958 45.74619766 54.9578346 45.81477279 59.4375 45.8125 C60.70400391 45.80025391 61.97050781 45.78800781 63.27539062 45.77539062 C64.48259766 45.77345703 65.68980469 45.77152344 66.93359375 45.76953125 C68.6050647 45.76336792 68.6050647 45.76336792 70.31030273 45.75708008 C73 46 73 46 75 48 C75.31884766 50.06298828 75.31884766 50.06298828 75.4140625 52.5703125 C75.45273438 53.46621094 75.49140625 54.36210937 75.53125 55.28515625 C75.5621875 56.22230469 75.593125 57.15945313 75.625 58.125 C75.66367188 59.06988281 75.70234375 60.01476562 75.7421875 60.98828125 C75.83661346 63.32532375 75.92218394 65.66235501 76 68 C81.37515933 68.02467759 86.75028585 68.04284928 92.12548828 68.05493164 C93.95492121 68.05996737 95.78435009 68.06679627 97.61376953 68.07543945 C100.23991898 68.08753824 102.86601532 68.09323583 105.4921875 68.09765625 C106.31306854 68.10281754 107.13394958 68.10797882 107.97970581 68.11329651 C112.12211844 68.22351874 112.12211844 68.22351874 116 67 C116.33 45.88 116.66 24.76 117 3 C97.11812434 3.14871407 97.11812434 3.14871407 77.23632812 3.30664062 C69.13323833 3.37305388 61.03015097 3.43851049 52.92700195 3.49731445 C46.39771567 3.54470218 39.8684826 3.5972219 33.33926201 3.65294075 C30.84207951 3.67339885 28.34488207 3.69210606 25.84767342 3.70907402 C22.3633188 3.73304181 18.8790682 3.76310643 15.39477539 3.79467773 C13.82924423 3.80331093 13.82924423 3.80331093 12.23208618 3.81211853 C11.28832626 3.82190735 10.34456635 3.83169617 9.37220764 3.84178162 C8.13470056 3.85146044 8.13470056 3.85146044 6.87219334 3.8613348 C4.98618605 3.79616529 4.98618605 3.79616529 4 5 C3.84379445 6.41327947 3.74943827 7.8335459 3.68359375 9.25390625 C3.64169922 10.10791016 3.59980469 10.96191406 3.55664062 11.84179688 C3.49766602 13.18854492 3.49766602 13.18854492 3.4375 14.5625 C3.39431641 15.46419922 3.35113281 16.36589844 3.30664062 17.29492188 C3.20021858 19.52978485 3.09820012 21.76476308 3 24 C2.01 24 1.02 24 0 24 C0 16.08 0 8.16 0 0 Z " fill="#DB7B28" transform="translate(151,317)"/>
<path d="M0 0 C7.92 0 15.84 0 24 0 C23.67 0.66 23.34 1.32 23 2 C16.07 2 9.14 2 2 2 C2.01047363 4.14032715 2.02094727 6.2806543 2.03173828 8.48583984 C2.06483379 15.54658215 2.08695195 22.60732782 2.10362434 29.66812706 C2.11407483 33.95034248 2.12825697 38.23247864 2.15087891 42.51464844 C2.17256238 46.64488126 2.18455909 50.77503769 2.18975449 54.90532303 C2.19345835 56.48343738 2.2006908 58.06154741 2.21146011 59.63962936 C2.22591549 61.84496951 2.22798048 64.04999142 2.22705078 66.25537109 C2.231492 67.51223724 2.23593323 68.76910339 2.24050903 70.0640564 C2 73 2 73 0 75 C-5.09055791 76.05653089 -9.61364944 75.95304256 -14.79296875 75.51953125 C-15.95723389 75.42389893 -17.12149902 75.3282666 -18.32104492 75.22973633 C-19.2051001 75.15392334 -20.08915527 75.07811035 -21 75 C-20.96447021 76.02359619 -20.92894043 77.04719238 -20.89233398 78.10180664 C-20.76129603 81.92404491 -20.63837626 85.74650969 -20.51782227 89.5690918 C-20.46467549 91.21890344 -20.4093702 92.8686471 -20.35180664 94.51831055 C-20.2691266 96.89877669 -20.19438649 99.27938476 -20.12109375 101.66015625 C-20.09405869 102.38960953 -20.06702362 103.11906281 -20.03916931 103.87062073 C-19.90974805 108.37993497 -20.24188864 112.55088181 -21 117 C-20.40985107 116.98952637 -19.81970215 116.97905273 -19.21166992 116.96826172 C-16.53698996 116.92667956 -13.86237803 116.9006671 -11.1875 116.875 C-10.25873047 116.85824219 -9.32996094 116.84148437 -8.37304688 116.82421875 C-7.48037109 116.81777344 -6.58769531 116.81132812 -5.66796875 116.8046875 C-4.84578857 116.79421387 -4.0236084 116.78374023 -3.17651367 116.77294922 C-1 117 -1 117 2 119 C2.36914349 120.91715431 2.36914349 120.91715431 2.36076355 123.30264282 C2.36488754 124.20570663 2.36901154 125.10877045 2.3732605 126.03919983 C2.36247467 127.0325383 2.35168884 128.02587677 2.34057617 129.04931641 C2.34123329 130.61520256 2.34123329 130.61520256 2.34190369 132.21272278 C2.33980756 135.67585722 2.31643734 139.13851225 2.29296875 142.6015625 C2.28737574 144.9976678 2.28310425 147.39377652 2.28010559 149.78988647 C2.26863368 156.10617492 2.2391462 162.42225745 2.20599365 168.73846436 C2.16995747 176.31165308 2.15614281 183.88491053 2.13863373 191.4581604 C2.1095104 202.97225029 2.05203901 214.48588808 2 226 C24.44 226 46.88 226 70 226 C70 191.02 70 156.04 70 120 C70.66 120 71.32 120 72 120 C72 155.64 72 191.28 72 228 C48.24 228 24.48 228 0 228 C0 192.36 0 156.72 0 120 C-8.25 120 -16.5 120 -25 120 C-24.67 104.16 -24.34 88.32 -24 72 C-16.41 71.67 -8.82 71.34 -1 71 C-0.67 47.57 -0.34 24.14 0 0 Z " fill="#D67A2E" transform="translate(127,341)"/>
<path d="M0 0 C23.76 0 47.52 0 72 0 C72 59.4 72 118.8 72 180 C48.24 180 24.48 180 0 180 C0 120.6 0 61.2 0 0 Z M2 2 C1.97745504 24.79989615 1.95902203 47.59978332 1.94818783 70.39968777 C1.94302435 80.98529394 1.93598067 91.57089272 1.92456055 102.15649414 C1.91461529 111.37937759 1.90814695 120.60225569 1.90591151 129.82514435 C1.90460413 134.71176412 1.90151658 139.59836857 1.89426994 144.48498344 C1.88751222 149.07887461 1.88538253 153.67274405 1.88689232 158.26663971 C1.88661588 159.95779348 1.88460929 161.64894794 1.88079453 163.34009743 C1.87586113 165.63878176 1.87700038 167.9373827 1.87974548 170.23606873 C1.87882369 171.52565711 1.8779019 172.81524549 1.87695217 174.14391232 C1.67323987 176.89857842 1.67323987 176.89857842 3 178 C25.11 178 47.22 178 70 178 C70 119.92 70 61.84 70 2 C47.56 2 25.12 2 2 2 Z " fill="#D87D31" transform="translate(295,389)"/>
<path d="M0 0 C1.12148438 0.00322266 2.24296875 0.00644531 3.3984375 0.00976562 C4.5740625 0.01814453 5.7496875 0.02652344 6.9609375 0.03515625 C8.14429688 0.03966797 9.32765625 0.04417969 10.546875 0.04882812 C13.47661257 0.06064158 16.40625022 0.07711367 19.3359375 0.09765625 C20.27384463 2.91137764 20.46543017 4.63328063 20.47637939 7.5450592 C20.48494461 8.91000267 20.48494461 8.91000267 20.49368286 10.30252075 C20.49480072 11.2984726 20.49591858 12.29442444 20.49707031 13.32055664 C20.50203522 14.37116776 20.50700012 15.42177887 20.51211548 16.50422668 C20.52673888 19.98459523 20.53353801 23.46491826 20.5390625 26.9453125 C20.54481204 29.35762026 20.5505698 31.769928 20.55633545 34.18223572 C20.56684473 39.24038913 20.57268846 44.29852665 20.57617188 49.35668945 C20.58166861 55.85270951 20.60572219 62.34852122 20.63414383 68.84447575 C20.65271926 73.82601039 20.65797299 78.80749423 20.65950775 83.78906059 C20.66254434 86.18496279 20.6706064 88.58086388 20.68369293 90.97673225 C20.70065337 94.31936916 20.69889813 97.66148852 20.69238281 101.00415039 C20.7015976 102.00212646 20.71081238 103.00010254 20.7203064 104.02832031 C20.71473724 104.9354628 20.70916809 105.84260529 20.70343018 106.77723694 C20.70489674 107.56792603 20.7063633 108.35861513 20.7078743 109.1732645 C20.58513515 109.80831378 20.46239601 110.44336306 20.3359375 111.09765625 C17.07737706 113.27002987 16.10951406 113.35368276 12.3359375 113.36328125 C10.881875 113.36714844 10.881875 113.36714844 9.3984375 113.37109375 C8.3878125 113.36335937 7.3771875 113.355625 6.3359375 113.34765625 C5.3253125 113.35539063 4.3146875 113.363125 3.2734375 113.37109375 C2.3040625 113.36851562 1.3346875 113.3659375 0.3359375 113.36328125 C-0.5509375 113.36102539 -1.4378125 113.35876953 -2.3515625 113.35644531 C-4.6640625 113.09765625 -4.6640625 113.09765625 -7.6640625 111.09765625 C-8.03320599 109.13364983 -8.03320599 109.13364983 -8.02482605 106.68112183 C-8.02895004 105.75281555 -8.03307404 104.82450928 -8.037323 103.86807251 C-8.02653717 102.84668182 -8.01575134 101.82529114 -8.00463867 100.77294922 C-8.00507675 99.6997644 -8.00551483 98.62657959 -8.00596619 97.52087402 C-8.00386991 93.96034791 -7.98049892 90.40028798 -7.95703125 86.83984375 C-7.95143829 84.37647763 -7.94716678 81.91310819 -7.94416809 79.44973755 C-7.93269575 72.95590047 -7.90320789 66.46226364 -7.87005615 59.96850586 C-7.83940678 53.34621897 -7.82567374 46.72389982 -7.81054688 40.1015625 C-7.77834059 27.10017482 -7.72768936 14.09892617 -7.6640625 1.09765625 C-5.00228029 -0.23323485 -2.97666854 -0.01503368 0 0 Z M-4.6640625 4.09765625 C-4.6640625 38.41765625 -4.6640625 72.73765625 -4.6640625 108.09765625 C2.5959375 108.09765625 9.8559375 108.09765625 17.3359375 108.09765625 C17.35848603 94.5550115 17.37685114 81.01237912 17.38774967 67.46971989 C17.39297912 61.18203601 17.40007789 54.89436559 17.41137695 48.60668945 C17.42220364 42.54427902 17.42821387 36.48188156 17.43081474 30.4194622 C17.43266939 28.10089348 17.43629075 25.78232551 17.44166756 23.46376228 C17.44887508 20.22851117 17.44992856 16.99331442 17.44946289 13.75805664 C17.45305817 12.78917511 17.45665344 11.82029358 17.46035767 10.822052 C17.458983 9.94560532 17.45760834 9.06915863 17.45619202 8.16615295 C17.45711381 7.40014298 17.4580356 6.63413301 17.45898533 5.84491062 C17.52580541 4.06896219 17.52580541 4.06896219 16.3359375 3.09765625 C14.31718912 2.99686705 12.29469501 2.96801502 10.2734375 2.97265625 C8.61634766 2.96878906 8.61634766 2.96878906 6.92578125 2.96484375 C3.04674383 3.10835547 -0.81234615 3.61619171 -4.6640625 4.09765625 Z " fill="#A1531E" transform="translate(684.6640625,410.90234375)"/>
<path d="M0 0 C23.76 0 47.52 0 72 0 C72 15.84 72 31.68 72 48 C48.24 48 24.48 48 0 48 C0 32.16 0 16.32 0 0 Z M2 2 C1.979375 9.074375 1.95875 16.14875 1.9375 23.4375 C1.928396 25.67329834 1.91929199 27.90909668 1.90991211 30.21264648 C1.90699304 31.97379496 1.90444446 33.73494411 1.90234375 35.49609375 C1.89722778 36.41942505 1.89211182 37.34275635 1.88684082 38.29406738 C1.88671997 39.16696411 1.88659912 40.03986084 1.88647461 40.93920898 C1.884254 41.70087875 1.88203339 42.46254852 1.87974548 43.24729919 C1.80909045 45.02810605 1.80909045 45.02810605 3 46 C5.08619022 46.09417773 7.17560477 46.11742878 9.26391602 46.11352539 C9.91755127 46.11367142 10.57118652 46.11381744 11.24462891 46.1139679 C13.41442128 46.11326883 15.58412879 46.10547678 17.75390625 46.09765625 C19.25463311 46.09579205 20.75536057 46.09436816 22.25608826 46.09336853 C26.21318226 46.08954352 30.17023978 46.0797134 34.12731934 46.06866455 C38.8713175 46.05665533 43.61532785 46.05204811 48.35933685 46.04621124 C55.57291664 46.03650162 62.78641631 46.01734498 70 46 C70 31.48 70 16.96 70 2 C47.56 2 25.12 2 2 2 Z " fill="#D77E33" transform="translate(295,317)"/>
<path d="M0 0 C31.68 0 63.36 0 96 0 C96 8.25 96 16.5 96 25 C103.59 25 111.18 25 119 25 C119 37.87 119 50.74 119 64 C118.67 64 118.34 64 118 64 C118 51.79 118 39.58 118 27 C110.41 27 102.82 27 95 27 C91.27023981 19.54047961 94 10.33999734 94 2 C63.64 2 33.28 2 2 2 C2 9.59 2 17.18 2 25 C-0.34527304 27.34527304 -6.1633274 26.18541859 -9.3125 26.1875 C-10.27607422 26.19974609 -11.23964844 26.21199219 -12.23242188 26.22460938 C-13.16248047 26.22654297 -14.09253906 26.22847656 -15.05078125 26.23046875 C-15.90325439 26.23457764 -16.75572754 26.23868652 -17.6340332 26.24291992 C-20 26 -20 26 -24 24 C-16.08 24 -8.16 24 0 24 C0 16.08 0 8.16 0 0 Z " fill="#D77A2D" transform="translate(463,365)"/>
<path d="M0 0 C6.93 0 13.86 0 21 0 C21 50.49 21 100.98 21 153 C13.08 153.33 5.16 153.66 -3 154 C-3 161.26 -3 168.52 -3 176 C-41.28 176 -79.56 176 -119 176 C-119 168.74 -119 161.48 -119 154 C-118.67 154 -118.34 154 -118 154 C-118 160.93 -118 167.86 -118 175 C-80.38 175 -42.76 175 -4 175 C-4 167.74 -4 160.48 -4 153 C1.46707316 147.53292684 11.27714211 150.36775514 19 150 C19.33 100.83 19.66 51.66 20 1 C14.06 1.33 8.12 1.66 2 2 C1.01 1.01 1.01 1.01 0 0 Z " fill="#EF7A14" transform="translate(752,391)"/>
<path d="M0 0 C0.66 0 1.32 0 2 0 C2.33 15.51 2.66 31.02 3 47 C26.265 47.495 26.265 47.495 50 48 C50.33 63.84 50.66 79.68 51 96 C34.83 96 18.66 96 2 96 C2 95.34 2 94.68 2 94 C17.18 94 32.36 94 48 94 C48 79.48 48 64.96 48 50 C44.61878906 50.01160156 41.23757812 50.02320313 37.75390625 50.03515625 C34.4940602 50.04294575 31.23421517 50.04902312 27.97436523 50.05493164 C25.70157409 50.05997325 23.4287862 50.06680637 21.15600586 50.07543945 C17.89696449 50.08751261 14.63796583 50.09322987 11.37890625 50.09765625 C10.35599991 50.10281754 9.33309357 50.10797882 8.27919006 50.11329651 C7.33829025 50.11337204 6.39739044 50.11344757 5.42797852 50.11352539 C4.59524918 50.115746 3.76251984 50.11796661 2.90455627 50.12025452 C1 50 1 50 0 49 C-0.09319449 47.4651703 -0.117458 45.92607918 -0.11352539 44.38842773 C-0.11344986 43.40748642 -0.11337433 42.4265451 -0.11329651 41.4158783 C-0.10813522 40.3492244 -0.10297394 39.2825705 -0.09765625 38.18359375 C-0.0962413 37.0974025 -0.09482635 36.01121124 -0.09336853 34.8921051 C-0.08775048 31.40720925 -0.07519492 27.92237658 -0.0625 24.4375 C-0.05748733 22.08138113 -0.05292402 19.72526126 -0.04882812 17.36914062 C-0.03777519 11.57940536 -0.02101951 5.78970719 0 0 Z " fill="#D07831" transform="translate(197,365)"/>
<path d="M0 0 C0.33 0 0.66 0 1 0 C1 7.26 1 14.52 1 22 C-6.26 22 -13.52 22 -21 22 C-21.33 65.56 -21.66 109.12 -22 154 C-44.44 154 -66.88 154 -90 154 C-90 153.67 -90 153.34 -90 153 C-68.22 153 -46.44 153 -24 153 C-24.03480469 138.95824219 -24.03480469 138.95824219 -24.0703125 124.6328125 C-24.08052639 118.71744682 -24.09023651 112.8020875 -24.09765625 106.88671875 C-24.10953868 97.48874741 -24.12353212 88.09081185 -24.15087891 78.69287109 C-24.17078306 71.84940085 -24.18370935 65.00595954 -24.18817699 58.16246116 C-24.19078943 54.53724772 -24.19694987 50.91211705 -24.21146011 47.28693008 C-24.22750873 43.24479718 -24.22798161 39.20280916 -24.22705078 35.16064453 C-24.23424133 33.95223907 -24.24143188 32.74383362 -24.24884033 31.49880981 C-24.246091 30.40222046 -24.24334167 29.3056311 -24.24050903 28.17581177 C-24.24235262 27.21899065 -24.24419621 26.26216953 -24.24609566 25.27635384 C-24 23 -24 23 -22 21 C-19.84521484 20.68115234 -19.84521484 20.68115234 -17.2109375 20.5859375 C-15.79941406 20.52792969 -15.79941406 20.52792969 -14.359375 20.46875 C-13.37453125 20.4378125 -12.3896875 20.406875 -11.375 20.375 C-9.88613281 20.31699219 -9.88613281 20.31699219 -8.3671875 20.2578125 C-5.91177058 20.16337339 -3.45591043 20.08059119 -1 20 C-0.67 13.4 -0.34 6.8 0 0 Z " fill="#F07C19" transform="translate(484,413)"/>
<path d="M0 0 C0.33 0 0.66 0 1 0 C1 22.77 1 45.54 1 69 C-14.18 69 -29.36 69 -45 69 C-45 61.41 -45 53.82 -45 46 C-53.91 46 -62.82 46 -72 46 C-72 61.84 -72 77.68 -72 94 C-72.33 94 -72.66 94 -73 94 C-73.02526838 87.03996553 -73.04283222 80.0799428 -73.05493164 73.11987305 C-73.05997341 70.75007688 -73.06680665 68.38028385 -73.07543945 66.01049805 C-73.0875119 62.61245961 -73.09322971 59.21446215 -73.09765625 55.81640625 C-73.10281754 54.74975235 -73.10797882 53.68309845 -73.11329651 52.5841217 C-73.11337204 51.60318039 -73.11344757 50.62223907 -73.11352539 49.61157227 C-73.115746 48.74331314 -73.11796661 47.87505402 -73.12025452 46.98048401 C-73 45 -73 45 -72 44 C-67.52668042 43.74619766 -63.0421654 43.81477279 -58.5625 43.8125 C-57.29599609 43.80025391 -56.02949219 43.78800781 -54.72460938 43.77539062 C-53.51740234 43.77345703 -52.31019531 43.77152344 -51.06640625 43.76953125 C-49.3949353 43.76336792 -49.3949353 43.76336792 -47.68969727 43.75708008 C-45 44 -45 44 -43 46 C-42.68115234 48.24658203 -42.68115234 48.24658203 -42.5859375 51.0078125 C-42.55032715 51.8961377 -42.5147168 52.78446289 -42.47802734 53.69970703 C-42.44402832 54.83005371 -42.4100293 55.96040039 -42.375 57.125 C-42.25125 60.71375 -42.1275 64.3025 -42 68 C-28.14 68 -14.28 68 0 68 C0 45.56 0 23.12 0 0 Z " fill="#E77F25" transform="translate(269,319)"/>
<path d="M0 0 C22.44 0 44.88 0 68 0 C68 14.52 68 29.04 68 44 C51.31919185 44.04010881 51.31919185 44.04010881 44.23242188 44.04882812 C39.38857941 44.05481596 34.54475578 44.06191465 29.70092773 44.07543945 C25.79764029 44.08627043 21.89437301 44.09227728 17.9910717 44.09487724 C16.49866353 44.09673111 15.00625652 44.100351 13.51385689 44.10573006 C11.43051861 44.11294331 9.34726469 44.11399083 7.26391602 44.11352539 C6.07588882 44.115746 4.88786163 44.11796661 3.66383362 44.12025452 C1 44 1 44 0 43 C-0.09268999 41.64905018 -0.11747326 40.29332909 -0.11352539 38.93920898 C-0.11340454 38.06631226 -0.11328369 37.19341553 -0.11315918 36.29406738 C-0.10804321 35.37073608 -0.10292725 34.44740479 -0.09765625 33.49609375 C-0.09664917 32.6517981 -0.09564209 31.80750244 -0.09460449 30.93762207 C-0.0893557 27.77090098 -0.07539456 24.60419919 -0.0625 21.4375 C-0.041875 14.363125 -0.02125 7.28875 0 0 Z M1 3 C0.82458528 6.01222907 0.76858317 8.93387006 0.8046875 11.9453125 C0.80670166 12.72962646 0.80871582 13.51394043 0.81079102 14.32202148 C0.82126793 17.25640701 0.84919048 20.19070928 0.875 23.125 C0.91625 29.68375 0.9575 36.2425 1 43 C22.78 43 44.56 43 67 43 C67 29.14 67 15.28 67 1 C55.67383813 0.94185367 55.67383813 0.94185367 44.34765625 0.90234375 C39.72993388 0.8903758 35.11229061 0.87619915 30.49462891 0.84912109 C26.77287808 0.8274326 23.05121206 0.81543986 19.32940292 0.81024551 C17.90758809 0.80654255 16.48577803 0.79931181 15.06399918 0.78853989 C13.07672886 0.77407881 11.08937369 0.77318354 9.10205078 0.77294922 C7.96953888 0.768508 6.83702698 0.76406677 5.67019653 0.75949097 C2.84645576 0.72632938 2.84645576 0.72632938 1 3 Z " fill="#F07B14" transform="translate(297,319)"/>
<path d="M0 0 C7.26 0 14.52 0 22 0 C22 0.33 22 0.66 22 1 C21.14450562 1.03758423 21.14450562 1.03758423 20.27172852 1.07592773 C17.70173843 1.19156549 15.13214473 1.31443624 12.5625 1.4375 C11.66466797 1.47681641 10.76683594 1.51613281 9.84179688 1.55664062 C8.98779297 1.59853516 8.13378906 1.64042969 7.25390625 1.68359375 C6.06776733 1.73858032 6.06776733 1.73858032 4.85766602 1.79467773 C2.98598559 1.80563257 2.98598559 1.80563257 2 3 C1.89117173 4.91059888 1.85310506 6.82524455 1.84178162 8.73890686 C1.82709839 10.60891106 1.82709839 10.60891106 1.81211853 12.51669312 C1.80621357 13.91094932 1.80040318 15.30520593 1.79467773 16.69946289 C1.78510459 18.15772279 1.77509485 19.61597988 1.76467896 21.07423401 C1.7375627 25.04510463 1.71658966 29.01598721 1.69667697 32.98689961 C1.67485872 37.13227491 1.64744974 41.27761303 1.62062073 45.42295837 C1.57063739 53.27816632 1.52571957 61.13339483 1.48259836 68.98864311 C1.43327409 77.92927038 1.37833818 86.86986038 1.32291877 95.81045163 C1.20901216 114.20693338 1.10239118 132.6034508 1 151 C7.6 151 14.2 151 21 151 C21 151.33 21 151.66 21 152 C14.07 152 7.14 152 0 152 C0 101.84 0 51.68 0 0 Z " fill="#F27C14" transform="translate(609,391)"/>
<path d="M0 0 C30.36 0 60.72 0 92 0 C92 6.93 92 13.86 92 21 C91.67 21 91.34 21 91 21 C91 14.4 91 7.8 91 1 C79.54343701 1.10789423 68.08693532 1.21992604 56.63048649 1.33933926 C51.31137779 1.39461407 45.99226365 1.44804122 40.6730957 1.49731445 C35.54431133 1.54489094 30.4155961 1.59723104 25.28689384 1.65294075 C23.32560372 1.67339484 21.36429462 1.69210275 19.40297127 1.70907402 C16.66579416 1.73305069 13.928749 1.76311404 11.19165039 1.79467773 C10.37238068 1.8004332 9.55311096 1.80618866 8.70901489 1.81211853 C5.05336705 1.51772994 5.05336705 1.51772994 2 3 C1.84379445 4.41327947 1.74943827 5.8335459 1.68359375 7.25390625 C1.64169922 8.10791016 1.59980469 8.96191406 1.55664062 9.84179688 C1.51732422 10.73962891 1.47800781 11.63746094 1.4375 12.5625 C1.39431641 13.46419922 1.35113281 14.36589844 1.30664062 15.29492188 C1.20021858 17.52978485 1.09820012 19.76476308 1 22 C0.67 22 0.34 22 0 22 C0 14.74 0 7.48 0 0 Z " fill="#EE7913" transform="translate(465,367)"/>
<path d="M0 0 C0.66 0.33 1.32 0.66 2 1 C-0.39638632 3.39638632 -1.0392541 3.2735196 -4.31640625 3.37890625 C-5.58581055 3.43014648 -5.58581055 3.43014648 -6.88085938 3.48242188 C-7.76580078 3.50884766 -8.65074219 3.53527344 -9.5625 3.5625 C-11.31394692 3.62219399 -13.06526689 3.68578412 -14.81640625 3.75390625 C-15.59443604 3.77783447 -16.37246582 3.8017627 -17.17407227 3.82641602 C-19.01848649 3.80614889 -19.01848649 3.80614889 -20 5 C-20.1238634 7.0854182 -20.17799067 9.17500141 -20.20532227 11.26391602 C-20.21522186 11.91755127 -20.22512146 12.57118652 -20.23532104 13.24462891 C-20.26701634 15.41435064 -20.29172492 17.5840943 -20.31640625 19.75390625 C-20.33696887 21.25463952 -20.35796515 22.7553669 -20.37937927 24.25608826 C-20.43467155 28.21311693 -20.48404911 32.17019849 -20.53222656 36.12731934 C-20.5823895 40.1624016 -20.63810268 44.19740672 -20.69335938 48.23242188 C-20.8010284 56.15488277 -20.90245379 64.07740804 -21 72 C-21.33 72 -21.66 72 -22 72 C-22 48.9 -22 25.8 -22 2 C-11.605 1.505 -11.605 1.505 -1 1 C-0.67 0.67 -0.34 0.34 0 0 Z " fill="#F17C16" transform="translate(151,341)"/>
<path d="M0 0 C0.66 0 1.32 0 2 0 C2 7.92 2 15.84 2 24 C-5.92 24 -13.84 24 -22 24 C-22 23.34 -22 22.68 -22 22 C-14.74 22 -7.48 22 0 22 C0 14.74 0 7.48 0 0 Z " fill="#D67C33" transform="translate(485,413)"/>
</svg>
